<svg version="1.1" id="Capa_1" xmlns="http://www.w3.org/2000/svg" xmlns:xlink="http://www.w3.org/1999/xlink" x="0px" y="0px"
	 width="18px" height="18px" viewBox="269.99 269.99 20 20" enable-background="new 269.99 269.99 20 20" xml:space="preserve">
<g>
	<g>
		<path d="M279.99,270.353c-5.509,0-9.637,4.128-9.637,9.637s4.128,9.638,9.637,9.638s9.638-4.129,9.638-9.638
			S285.499,270.353,279.99,270.353z M279.99,288.502c-4.305,0-8.513-4.207-8.513-8.512s4.208-8.513,8.513-8.513
			s8.512,4.208,8.512,8.513S284.295,288.502,279.99,288.502z"/>
		<path d="M280.855,280.002l-0.019-6.248c0-0.468-0.379-0.847-0.847-0.847s-0.846,0.379-0.846,0.847l0.019,6.519
			c0,0.014,0.003,0.026,0.004,0.039c-0.011,0.23,0.068,0.464,0.244,0.64l3.152,3.152c0.33,0.33,0.866,0.33,1.197,0
			c0.33-0.331,0.33-0.867,0-1.197L280.855,280.002z"/>
	</g>
</g>
</svg>
